<?xml version="1.0" standalone="no"?>
<!DOCTYPE svg PUBLIC "-//W3C//DTD SVG 20010904//EN"
 "http://www.w3.org/TR/2001/REC-SVG-20010904/DTD/svg10.dtd">
<svg version="1.0" xmlns="http://www.w3.org/2000/svg"
 width="100.000000pt" height="100.000000pt" viewBox="0 0 100.000000 100.000000"
 preserveAspectRatio="xMidYMid meet">

<g transform="translate(0.000000,100.000000) scale(0.100000,-0.100000)"
fill="#000000" stroke="none">
<path d="M376 731 c-114 -114 -119 -121 -108 -145 6 -15 20 -26 30 -26 9 0 49
32 87 70 l70 71 5 -262 c4 -235 7 -263 23 -273 12 -8 22 -8 35 0 15 10 18 38
22 273 l5 262 70 -71 c38 -38 78 -70 87 -70 10 0 24 11 30 26 11 24 6 31 -108
145 -65 65 -121 119 -124 119 -3 0 -59 -54 -124 -119z"/>
</g>
</svg>
