<?xml version="1.0" standalone="no"?>
<!DOCTYPE svg PUBLIC "-//W3C//DTD SVG 20010904//EN"
 "http://www.w3.org/TR/2001/REC-SVG-20010904/DTD/svg10.dtd">
<svg version="1.0" xmlns="http://www.w3.org/2000/svg"
 width="100.000000pt" height="100.000000pt" viewBox="0 0 100.000000 100.000000"
 preserveAspectRatio="xMidYMid meet">

<g transform="translate(0.000000,100.000000) scale(0.100000,-0.100000)"
fill="#000000" stroke="none">
<path d="M472 828 c-9 -9 -12 -83 -12 -272 l0 -260 -73 72 c-40 39 -79 72 -88
72 -19 0 -39 -20 -39 -40 0 -8 54 -69 120 -135 l120 -120 120 120 c66 66 120
127 120 135 0 20 -20 40 -39 40 -9 0 -48 -33 -88 -72 l-73 -72 0 260 c0 267
-2 284 -40 284 -9 0 -21 -5 -28 -12z"/>
</g>
</svg>
