<?xml version="1.0" standalone="no"?>
<!DOCTYPE svg PUBLIC "-//W3C//DTD SVG 20010904//EN"
 "http://www.w3.org/TR/2001/REC-SVG-20010904/DTD/svg10.dtd">
<svg version="1.0" xmlns="http://www.w3.org/2000/svg"
 width="96.000000pt" height="96.000000pt" viewBox="0 0 96.000000 96.000000"
 preserveAspectRatio="xMidYMid meet">

<g transform="translate(0.000000,96.000000) scale(0.100000,-0.100000)"
fill="#000000" stroke="none">
<path d="M215 854 c-52 -59 -94 -112 -92 -118 2 -6 17 -12 34 -14 26 -3 37 4
74 47 l44 51 5 -247 5 -248 35 0 35 0 5 248 5 247 44 -51 c37 -43 48 -50 74
-47 17 2 32 8 34 14 4 12 -183 224 -197 224 -5 0 -52 -48 -105 -106z"/>
<path d="M607 634 c-4 -4 -7 -118 -7 -253 l0 -246 -46 53 c-40 45 -51 53 -77
50 -17 -2 -32 -8 -34 -14 -4 -12 183 -224 197 -224 14 0 201 212 197 224 -2 6
-17 12 -34 14 -26 3 -37 -4 -74 -47 l-44 -51 -5 247 -5 248 -30 3 c-17 2 -34
0 -38 -4z"/>
</g>
</svg>
