<svg width="20" height="24" viewBox="0 0 20 24" fill="none" xmlns="http://www.w3.org/2000/svg">
<path d="M6.34375 0.0955029C5.89375 0.193941 5.5 0.348627 5.09688 0.58769C4.82031 0.751753 2.03125 3.04863 1.59531 3.46581C1.12656 3.91582 0.770313 4.52519 0.545313 5.24238L0.414062 5.65488V13.483C0.414062 20.9361 0.41875 21.3252 0.498438 21.6158C0.789062 22.6377 1.57656 23.4768 2.58906 23.8377L2.99219 23.983H10H17.0078L17.3828 23.8518C18.4141 23.4908 19.2063 22.6471 19.5016 21.6158C19.5813 21.3252 19.5859 20.8939 19.5859 12.0064C19.5859 3.11894 19.5813 2.68769 19.5016 2.39707C19.2063 1.36582 18.4141 0.522066 17.3828 0.161129L17.0078 0.0298786L11.875 0.020504C7.075 0.0111294 6.71875 0.0158157 6.34375 0.0955029ZM16.9984 1.73144C17.5141 1.94238 17.8797 2.42519 17.9734 3.01582C18.0016 3.20332 18.0156 6.61113 18.0063 12.2174C17.9922 20.4908 17.9875 21.1377 17.9125 21.3252C17.7812 21.6486 17.5563 21.9393 17.2984 22.108C16.8109 22.4314 17.2094 22.4174 9.85469 22.4033L3.22656 22.3893L2.96875 22.2674C2.47187 22.0377 2.16719 21.6674 2.05 21.1518C1.99844 20.9408 1.98438 19.4924 1.98438 13.5533C1.98438 8.65488 2.00313 6.11425 2.03594 5.91269C2.09219 5.5705 2.33125 5.03613 2.54688 4.77831C2.70156 4.5955 5.43438 2.31738 5.86563 2.01738C6.09531 1.85332 6.52188 1.67988 6.8125 1.633C6.87813 1.61894 9.13281 1.61425 11.8281 1.61894L16.7266 1.62363L16.9984 1.73144Z" fill="#1F1F22"/>
<path d="M12.7797 4.858C12.6578 4.933 12.55 5.05019 12.4891 5.17675C12.3906 5.37363 12.3906 5.43925 12.3906 7.95644C12.3906 10.3518 12.4 10.5439 12.4797 10.7174C12.5266 10.8205 12.6063 10.9424 12.6531 10.9846C12.7797 11.0971 13.0656 11.2096 13.2203 11.2096C13.4453 11.2096 13.7406 11.0268 13.8672 10.8111L13.9844 10.6096L13.975 7.91425C13.9609 5.2705 13.9609 5.21425 13.8625 5.08769C13.6938 4.858 13.5344 4.77363 13.2484 4.75488C13.0187 4.74081 12.9437 4.75488 12.7797 4.858Z" fill="#1F1F22"/>
<path d="M9.71875 6.52675C9.56875 6.58769 9.35313 6.78925 9.26875 6.95331C9.21719 7.05644 9.20312 7.41269 9.20312 8.81425C9.20312 9.9205 9.22188 10.5955 9.25469 10.6799C9.325 10.8674 9.56875 11.1064 9.75625 11.1674C10.1172 11.2893 10.5813 11.0689 10.7313 10.708C10.8156 10.5158 10.825 7.21581 10.7453 7.00488C10.6 6.61113 10.0984 6.37675 9.71875 6.52675Z" fill="#1F1F22"/>
<path d="M6.48438 7.18302C6.32969 7.24396 6.16563 7.40333 6.08125 7.56739C5.97344 7.77364 5.9875 10.5486 6.09531 10.7736C6.18438 10.9658 6.45156 11.158 6.69063 11.1955C7.05156 11.2518 7.45938 10.9846 7.5625 10.6096C7.59063 10.5111 7.60938 9.88302 7.60938 9.12364C7.60938 7.94708 7.6 7.79239 7.52031 7.62364C7.32813 7.21114 6.8875 7.02364 6.48438 7.18302Z" fill="#1F1F22"/>
<path d="M4.95626 13.6893C4.4922 13.9002 4.3422 14.4346 4.62814 14.8658C4.85782 15.2174 4.48751 15.194 10.0656 15.194C14.2328 15.194 15.0906 15.1846 15.2219 15.1283C15.5359 14.9971 15.7234 14.608 15.6531 14.233C15.611 14.008 15.3344 13.708 15.1188 13.6471C15.0063 13.619 13.2156 13.6002 10.0469 13.6002C5.37814 13.6002 5.13907 13.6049 4.95626 13.6893Z" fill="#1F1F22"/>
<path d="M4.93282 17.6361C4.49219 17.7299 4.225 18.2267 4.37032 18.6767C4.44063 18.8877 4.68907 19.1127 4.92344 19.1736C5.16719 19.2439 14.8281 19.2439 15.0719 19.1783C15.5453 19.0424 15.7984 18.5361 15.6063 18.0861C15.5359 17.9127 15.2969 17.6924 15.1422 17.6549C14.9922 17.6174 5.11094 17.6033 4.93282 17.6361Z" fill="#1F1F22"/>
</svg>
