<svg width="20" height="20" viewBox="0 0 20 20" fill="none" xmlns="http://www.w3.org/2000/svg">
<path d="M1.94736 0.70232C1.15518 0.913258 0.536426 1.54607 0.325488 2.34763C0.217676 2.75076 0.217676 17.2539 0.325488 17.657C0.536426 18.4679 1.15986 19.0961 1.96611 19.307C2.20986 19.3679 3.18486 19.3773 10.0052 19.3773C18.4661 19.3773 17.9974 19.3914 18.5458 19.1148C18.8786 18.9461 19.2911 18.5383 19.4692 18.2101C19.7739 17.6383 19.7552 18.1304 19.7552 10.0023C19.7552 3.51951 19.7458 2.58201 19.6849 2.33826C19.4739 1.53201 18.8458 0.908571 18.0349 0.697634C17.6364 0.594509 2.33643 0.599195 1.94736 0.70232ZM17.9083 2.2492C17.9786 2.30076 18.0817 2.40388 18.1333 2.4742L18.2317 2.60076V10.0023V17.4039L18.1333 17.5304C18.0817 17.6008 17.9786 17.7039 17.9083 17.7554L17.7817 17.8539H10.0052H2.22861L2.10205 17.7554C2.03174 17.7039 1.92861 17.6008 1.87705 17.5304C1.77861 17.4039 1.77861 17.3898 1.76455 10.1289C1.75986 6.12576 1.76455 2.78826 1.77861 2.70388C1.81143 2.51638 2.0083 2.27732 2.20049 2.19295C2.31768 2.14138 3.71455 2.13201 10.0614 2.14138C17.7771 2.15076 17.7817 2.15076 17.9083 2.2492Z" fill="#1F1F22"/>
<path d="M6.70051 5.19296C6.62551 5.23046 5.99738 5.82577 5.30832 6.51483C3.96301 7.86952 3.94894 7.89296 4.02394 8.29139C4.06613 8.51171 4.30051 8.76952 4.51144 8.83046C4.62863 8.86796 6.33488 8.87733 9.92082 8.86796C15.1239 8.85389 15.1568 8.85389 15.2833 8.75546C15.5318 8.57264 15.6068 8.42264 15.6068 8.12733C15.6068 7.83202 15.5318 7.68202 15.2833 7.49921C15.1568 7.40077 15.1146 7.40077 10.8583 7.38671L6.56457 7.37733L7.13176 6.80077C7.59113 6.33671 7.70832 6.19608 7.73176 6.05077C7.84894 5.43202 7.25832 4.93983 6.70051 5.19296Z" fill="#1F1F22"/>
<path d="M5.20047 11.5679C4.75985 11.7601 4.61922 12.3554 4.9286 12.7258C5.17235 13.0164 4.9661 13.0023 9.59266 13.0023H13.8208L13.2536 13.5789C12.6442 14.1929 12.5833 14.3054 12.6536 14.6758C12.6958 14.9054 12.977 15.1867 13.2067 15.2289C13.6192 15.3086 13.6286 15.3039 15.0302 13.9023C16.1505 12.782 16.3333 12.5804 16.3567 12.4304C16.427 12.0554 16.2489 11.6992 15.9255 11.5679C15.7052 11.4742 5.41141 11.4742 5.20047 11.5679Z" fill="#1F1F22"/>
</svg>
